<svg width="3774" height="1050" xmlns="http://www.w3.org/2000/svg" xmlns:xlink="http://www.w3.org/1999/xlink" xml:space="preserve" overflow="hidden"><g transform="translate(-252 -289)"><path d="M254.257 858.06C284.845 827.49 293.854 861.829 316.691 864.76 333.871 867.063 346.022 848.009 363.411 846.334 394 843.194 395.047 864.551 415.16 880.045 443.444 857.013 464.185 456.461 464.185 456.461 464.185 456.461 488.279 816.392 492.05 956.052 495.402 925.9 494.983 878.789 513.21 851.988 535.209 819.952 561.816 814.717 575.225 773.468 584.862 744.364 608.746 668.986 643.315 720.703 664.266 752.111 653.372 833.352 694.435 850.731 702.816 854.291 722.929 847.172 734.452 846.962 745.975 846.753 750.165 853.872 759.802 851.359 769.44 848.847 775.306 836.912 784.315 833.98 811.97 824.977 814.275 840.053 828.102 861.41 846.748 889.677 843.187 886.327 868.328 867.273 880.689 857.851 900.383 841.937 917.563 845.287 938.514 849.266 939.351 885.489 952.969 887.583 962.398 888.839 968.892 871.67 980.415 869.576 1011.63 863.922 1018.13 898.052 1030.7 917.944 1049.34 894.283 1049.97 848.428 1053.32 820.58 1060.45 763.837 1080.14 511.738 1080.14 511.738 1080.14 511.738 1104.24 799.851 1108.43 923.178 1111.99 895.749 1113.24 832.306 1131.89 809.483 1145.72 792.313 1171.91 787.497 1187.41 772.422 1210.25 750.017 1207.31 715.679 1223.86 688.877 1279.38 598.005 1302.64 815.345 1309.76 848.847 1312.28 860.991 1313.33 884.023 1325.69 890.724 1331.97 894.283 1350.41 876.486 1370.52 888.63 1390.63 900.774 1418.92 887.164 1443.22 889.467 1471.5 892.189 1478 886.117 1499.58 867.273 1511.1 857.222 1519.69 841.309 1538.13 843.403 1564.32 846.125 1562.01 879.836 1582.33 888.63 1611.04 900.983 1611.46 867.901 1634.5 863.294 1657.55 858.688 1666.56 889.258 1681.01 903.915 1704.9 872.926 1700.08 802.573 1702.8 765.512 1708.67 685.527 1727.52 400.136 1727.52 400.136 1727.52 400.136 1750.36 791.057 1754.76 955.633 1758.11 926.738 1756.86 874.182 1777.39 849.894 1786.4 839.215 1803.99 841.937 1811.12 834.609 1818.24 827.28 1816.98 819.114 1820.34 811.367 1834.58 780.169 1858.68 732.429 1891.57 774.097 1910.84 798.595 1900.37 852.825 1930.96 867.482 1948.14 875.648 1977.68 863.294 1997.16 863.713 2007.22 863.922 2012.46 870.204 2022.51 866.645 2032.57 863.085 2036.55 846.334 2045.14 840.471 2071.54 822.674 2074.89 838.587 2093.33 859.735 2111.76 880.883 2115.74 878.579 2139.63 861.201 2153.04 851.569 2160.79 839.634 2179.64 839.424 2189.91 839.424 2201.01 850.522 2210.02 849.475 2230.14 847.172 2222.8 839.006 2237.05 830.421 2296.34 794.198 2295.5 867.901 2314.78 910.825 2345.58 913.337 2361.5 528.908 2361.5 528.908 2361.5 528.908 2382.45 889.677 2386.01 1023.47 2389.57 992.484 2389.36 945.792 2408.01 918.363 2414.09 909.15 2426.24 903.496 2434.41 896.377 2460.39 873.764 2463.74 855.128 2474.84 823.093 2485.95 791.057 2514.23 742.689 2547.12 786.032 2560.53 803.62 2555.5 809.483 2572.06 821.836 2596.57 840.262 2595.52 828.746 2622.55 829.165 2632.39 829.374 2640.56 836.703 2650.62 836.284 2660.68 835.865 2672.41 826.861 2684.35 827.908 2710.96 830.212 2710.75 848.428 2725.42 866.435 2747.83 894.074 2733.38 878.789 2758.31 870.832 2787.22 861.619 2774.44 878.161 2799.37 881.929 2824.3 885.699 2807.12 869.367 2825.14 858.269 2851.33 842.356 2854.89 874.811 2872.91 881.302 2913.76 895.958 2907.9 814.927 2955.67 871.251 2973.06 830.002 2970.33 774.725 2973.06 731.382 2977.87 650.979 2992.96 491.009 2992.96 491.009 2992.96 491.009 3011.4 859.107 3014.96 993.113 3018.31 962.752 3020.4 878.579 3038.42 851.988 3060.42 819.952 3087.45 814.089 3100.65 773.468 3110.28 743.945 3134.17 668.986 3168.53 720.703 3192.62 756.718 3178.16 821.208 3217.13 849.266 3232.43 835.446 3231.8 808.854 3259.24 819.533 3269.72 823.721 3270.56 843.612 3279.15 847.172 3293.81 853.035 3279.36 847.591 3296.33 843.403 3313.3 839.215 3314.35 821.836 3336.34 833.98 3343.26 837.54 3349.33 855.128 3353.52 861.41 3370.49 886.117 3369.03 886.536 3392.28 868.529 3408.83 855.547 3432.3 837.331 3454.51 849.266 3476.71 861.201 3462.47 892.608 3487.19 876.486 3504.79 865.179 3494.73 828.118 3522.18 821.208 3558.42 812.414 3562.61 865.807 3586.29 878.161 3613.94 853.872 3618.76 785.613 3624.63 752.53 3629.03 726.566 3660.04 559.687 3660.04 559.687 3660.04 559.687 3683.08 934.276 3689.58 1062 3694.39 1022.85 3722.89 706.466 3801.87 758.602 3826.18 774.515 3819.26 814.927 3838.12 836.493 3856.97 858.06 3863.89 847.591 3891.12 846.962 3902.02 846.544 3908.93 851.988 3919.83 849.475 3930.72 846.962 3941.2 827.49 3955.02 828.746 3980.58 830.84 3984.56 873.973 4003.42 886.536 4010.96 881.092 4017.04 873.345 4025 869.995L4025 290 253 290 253 862.875C254.676 861.619 252.371 859.944 254.257 858.06Z" stroke="#F9AE6D" stroke-width="2.09534" stroke-miterlimit="8" fill="#F9AE6D" fill-rule="evenodd"/><path d="M4001.12 906.165C3988.34 905.328 3978.28 885.861 3972.2 877.069 3968.85 872.464 3958.17 848.81 3954.81 848.182 3951.46 847.554 3943.71 858.021 3939.31 858.648 3924.23 860.532 3917.31 869.742 3898.88 869.742 3889.24 869.952 3876.88 869.533 3868.08 869.115 3833.72 868.277 3821.36 851.741 3807.74 817.621 3803.13 805.899 3800.62 778.268 3788.88 773.454 3764.58 763.406 3756.2 809.667 3751.17 825.785 3738.18 867.859 3677.01 1191.89 3677.01 1191.89 3677.01 1191.89 3656.05 770.523 3652.28 695.166 3648.51 724.053 3635.94 897.373 3586.29 897.373 3556.75 897.373 3548.37 827.25 3521.13 844.414 3499.34 858.021 3511.7 920.818 3468.75 901.351 3439.21 887.745 3456.39 850.066 3415.33 874.348 3400.87 882.721 3388.51 907.84 3369.66 906.165 3356.25 904.909 3347.66 886.907 3340.95 877.069L3323.35 848.182C3317.93 851.159 3312.8 854.665 3308.06 858.648 3291.09 860.532 3294.02 877.069 3274.33 869.742 3260.71 864.928 3259.45 843.158 3248.35 835.204 3238.71 845.042 3236.2 866.603 3219.86 868.487 3198.7 870.999 3185.29 838.135 3178.79 823.063 3166.85 795.851 3170.83 737.241 3146.32 720.704 3129.98 726.565 3124.53 761.103 3119.92 775.128 3108.82 809.248 3097.92 824.319 3071.32 849.02 3044.71 873.72 3044.08 897.164 3039.05 934.842 3034.02 972.521 3015.38 1143.12 3012.86 1143.75 3005.32 1146.26 2998.82 964.985 2996.73 890.675 2995.26 836.46 2991.91 755.242 2990.44 701.027 2988.35 736.612 2998.2 849.438 2973.06 879.162 2947.91 908.886 2950.43 876.86 2924.03 868.068 2907.69 886.07 2909.36 912.863 2875.63 903.862 2857.83 899.048 2853.43 878.115 2837.71 872.673 2825.98 883.558 2829.33 902.397 2809.22 905.537 2792.46 907.84 2781.14 885.651 2769.2 886.907 2757.26 888.163 2752.23 909.305 2733.17 903.444 2709.7 896.327 2711.38 859.067 2692.94 849.857 2679.53 842.949 2658.16 854.462 2641.4 854.881 2633.86 855.09 2616.05 851.322 2608.72 850.694 2601.39 850.066 2598.87 856.764 2593.63 855.927 2583.79 854.462 2553.41 839.181 2546.29 831.436 2539.16 823.691 2538.74 796.06 2524.29 789.99 2497.47 778.687 2489.72 844.833 2483.64 860.323 2469.81 895.489 2436.5 906.374 2420.16 936.307 2402.35 969.59 2384.75 1214.08 2384.75 1214.08 2384.75 1214.08 2367.99 1050.18 2366.32 996.802 2364.22 914.887 2361.98 833.18 2359.61 751.684 2356.47 793.758 2361.29 882.721 2332.17 918.306 2286.7 973.567 2291.52 843.368 2266.17 835.832 2252.14 831.646 2233.28 867.859 2212.33 868.905 2182.37 869.952 2182.37 854.462 2154.08 873.51 2144.66 880 2133.34 895.28 2122.03 897.164 2093.54 902.397 2077.19 869.952 2062.32 850.275 2051.63 860.114 2044.09 878.534 2030.89 885.023 2012.67 894.024 2003.24 881.046 1985.43 881.255 1943.53 881.465 1917.55 902.606 1895.34 851.322 1889.06 836.46 1886.75 775.128 1867.27 775.338 1852.6 775.547 1843.8 804.224 1839.61 813.853 1828.93 839.181 1829.56 839.181 1811.12 853.834 1792.68 868.487 1794.36 858.858 1785.98 878.953 1774.66 907.002 1740.93 1139.98 1740.93 1139.98 1740.93 1139.98 1735.7 947.192 1734.23 895.071 1732.13 816.784 1730.04 738.287 1727.73 660 1725.01 718.611 1722.5 777.64 1715.37 835.832 1713.07 854.043 1712.02 912.235 1689.39 921.655 1666.77 931.074 1663.83 902.397 1650.63 892.349 1627.59 875.185 1647.7 886.07 1622.77 899.676 1602.87 910.77 1586.32 916.003 1566.2 899.676 1546.09 883.349 1551.54 859.276 1525.14 867.231 1512.15 871.208 1499.37 897.164 1486.17 904.072 1461.87 916.84 1449.51 902.397 1428.97 902.188 1411.79 902.188 1396.5 911.398 1378.9 911.607 1370.73 911.817 1362.35 904.49 1353.97 904.281 1345.59 904.072 1342.03 912.235 1335.11 911.817 1291.33 908.886 1290.49 851.531 1284.83 817.202 1280.01 787.688 1279.38 701.027 1252.36 682.816 1238.53 687.84 1231.83 719.239 1228.06 730.333 1218.63 759.22 1214.44 776.593 1188.46 795.223 1157.66 817.621 1145.3 815.737 1136.29 850.694 1119.95 913.491 1106.33 1064 1106.33 1064 1106.33 1064 1089.15 889.21 1087.89 851.741L1082.87 705.214C1080.98 732.008 1080.35 941.959 1029.23 938.61 1008.49 937.145 1011 905.955 998.224 896.536 975.387 880 989.424 894.861 973.92 899.048 944.799 906.793 950.875 906.584 929.714 887.116 912.744 871.836 929.086 858.648 896.402 870.789 880.479 876.86 870.842 900.722 854.71 904.072 831.035 909.305 823.912 886.07 811.342 869.952 788.295 841.065 801.285 855.509 770.906 867.231 751.212 874.766 738.432 866.393 718.738 865.975 699.045 865.556 697.159 876.86 677.046 861.579 663.219 851.113 654.838 828.506 649.391 812.806 640.801 788.525 643.315 735.566 620.898 720.704 604.137 726.774 597.223 768.22 592.824 781.617 586.957 798.572 583.815 812.388 571.873 826.622 559.931 840.856 538.98 847.554 529.552 861.997 514.258 885.651 509.23 924.167 506.296 950.542 503.363 976.916 484.298 1135.79 484.298 1135.79 484.298 1135.79 469.632 831.018 465.861 693.701 463.975 722.169 463.137 922.283 402.17 894.024 380.801 884.186 386.876 862.207 357.964 866.812 343.298 869.115 336.175 886.698 318.157 884.604 304.958 883.139 298.882 866.393 288.198 865.137 273.113 863.254 267.037 878.743 253 882.511L253 1338 4025 1338 4025 896.536C4021.86 899.644 4018.13 902.098 4014.02 903.749 4009.94 905.403 4005.54 906.224 4001.12 906.165Z" stroke="#F9AE6D" stroke-width="2.09534" stroke-miterlimit="8" fill="#F9AE6D" fill-rule="evenodd"/></g></svg>