<svg width="1280" height="720" xmlns="http://www.w3.org/2000/svg" xmlns:xlink="http://www.w3.org/1999/xlink" overflow="hidden"><g><rect x="0" y="0" width="1280" height="720" fill="#FFFFFF"/><path d="M106.866 166.062C115.762 157.152 118.382 167.16 125.023 168.014 130.019 168.686 133.553 163.132 138.611 162.644 147.507 161.729 147.811 167.953 153.661 172.469 161.886 165.756 167.918 49.0151 167.918 49.0151 167.918 49.0151 174.925 153.918 176.022 194.621 176.997 185.834 176.875 172.103 182.176 164.292 188.574 154.955 196.312 153.429 200.212 141.407 203.015 132.925 209.961 110.956 220.014 126.029 226.107 135.183 222.939 158.861 234.881 163.926 237.319 164.963 243.168 162.888 246.519 162.827 249.871 162.766 251.089 164.841 253.892 164.109 256.695 163.376 258.401 159.898 261.021 159.044 269.064 156.42 269.734 160.813 273.755 167.038 279.178 175.276 278.142 174.3 285.454 168.747 289.049 166.001 294.777 161.363 299.773 162.339 305.866 163.498 306.11 174.056 310.07 174.666 312.812 175.032 314.701 170.028 318.052 169.418 327.131 167.77 329.02 177.717 332.676 183.515 338.098 176.619 338.281 163.254 339.256 155.138 341.328 138.6 347.055 65.1258 347.055 65.1258 347.055 65.1258 354.062 149.096 355.281 185.04 356.317 177.046 356.682 158.555 362.105 151.904 366.127 146.9 373.743 145.496 378.252 141.102 384.893 134.572 384.04 124.564 388.854 116.753 405.001 90.2682 411.764 153.612 413.836 163.376 414.567 166.916 414.871 173.629 418.466 175.581 420.294 176.619 425.656 171.432 431.505 174.971 437.355 178.511 445.581 174.544 452.648 175.215 460.874 176.009 462.763 174.239 469.039 168.747 472.39 165.817 474.888 161.179 480.25 161.79 487.867 162.583 487.196 172.408 493.107 174.971 501.454 178.572 501.576 168.93 508.278 167.587 514.981 166.245 517.601 175.154 521.805 179.426 528.751 170.394 527.35 149.89 528.142 139.088 529.848 115.777 535.332 32.5994 535.332 32.5994 535.332 32.5994 541.973 146.533 543.253 194.499 544.228 186.078 543.862 170.76 549.833 163.682 552.453 160.569 557.571 161.363 559.643 159.227 561.715 157.091 561.349 154.711 562.324 152.453 566.467 143.36 573.475 129.446 583.041 141.59 588.646 148.73 585.6 164.536 594.496 168.808 599.492 171.188 608.083 167.587 613.75 167.709 616.674 167.77 618.198 169.601 621.122 168.564 624.047 167.526 625.205 162.644 627.703 160.935 635.38 155.748 636.355 160.386 641.717 166.55 647.079 172.713 648.237 172.042 655.183 166.977 659.083 164.17 661.337 160.691 666.821 160.63 669.806 160.63 673.036 163.865 675.656 163.56 681.505 162.888 679.372 160.508 683.516 158.006 700.759 147.449 700.515 168.93 706.121 181.44 715.078 182.172 719.709 70.1299 719.709 70.1299 719.709 70.1299 725.802 175.276 726.838 214.272 727.873 205.24 727.812 191.631 733.235 183.637 735.002 180.952 738.536 179.304 740.913 177.229 748.468 170.638 749.443 165.207 752.672 155.87 755.902 146.533 764.127 132.437 773.693 145.069 777.593 150.195 776.131 151.904 780.944 155.504 788.073 160.874 787.768 157.518 795.629 157.64 798.492 157.701 800.869 159.837 803.793 159.715 806.718 159.593 810.13 156.969 813.603 157.274 821.341 157.945 821.281 163.254 825.546 168.503 832.065 176.558 827.861 172.103 835.112 169.784 843.52 167.099 839.803 171.92 847.054 173.018 854.305 174.117 849.309 169.357 854.549 166.123 862.165 161.485 863.201 170.944 868.441 172.835 880.323 177.107 878.616 153.49 892.509 169.906 897.566 157.884 896.774 141.773 897.566 129.141 898.967 105.708 903.354 59.0843 903.354 59.0843 903.354 59.0843 908.716 166.367 909.752 205.423 910.727 196.574 911.336 172.042 916.576 164.292 922.974 154.955 930.834 153.246 934.673 141.407 937.476 132.803 944.422 110.956 954.415 126.029 961.422 136.525 957.217 155.321 968.551 163.498 972.998 159.471 972.816 151.721 980.798 154.833 983.844 156.053 984.088 161.851 986.586 162.888 990.851 164.597 986.647 163.01 991.582 161.79 996.518 160.569 996.822 155.504 1003.22 159.044 1005.23 160.081 1007 165.207 1008.22 167.038 1013.15 174.239 1012.73 174.361 1019.49 169.113 1024.3 165.329 1031.13 160.02 1037.59 163.498 1044.04 166.977 1039.9 176.131 1047.09 171.432 1052.21 168.136 1049.28 157.335 1057.27 155.321 1067.81 152.758 1069.03 168.319 1075.91 171.92 1083.95 164.841 1085.35 144.947 1087.06 135.305 1088.34 127.738 1097.36 79.1006 1097.36 79.1006 1097.36 79.1006 1104.06 188.275 1105.95 225.5 1107.35 214.088 1115.64 121.879 1138.61 137.075 1145.68 141.712 1143.67 153.49 1149.15 159.776 1154.63 166.062 1156.64 163.01 1164.57 162.827 1167.73 162.705 1169.74 164.292 1172.91 163.56 1176.08 162.827 1179.13 157.152 1183.15 157.518 1190.58 158.128 1191.74 170.699 1197.22 174.361 1199.42 172.774 1201.18 170.516 1203.5 169.54L1203.5 0.500053 106.5 0.500053 106.5 167.465C106.988 167.099 106.317 166.611 106.866 166.062Z" stroke="#F9AE6D" stroke-width="0.609554" stroke-miterlimit="8" fill="#F9AE6D" fill-rule="evenodd"/><path d="M1196.55 180.026C1192.84 179.783 1189.91 174.126 1188.15 171.572 1187.17 170.234 1184.06 163.361 1183.09 163.178 1182.11 162.996 1179.86 166.037 1178.58 166.219 1174.19 166.767 1172.18 169.443 1166.82 169.443 1164.02 169.504 1160.42 169.382 1157.86 169.261 1147.87 169.017 1144.28 164.212 1140.31 154.298 1138.97 150.892 1138.24 142.864 1134.83 141.465 1127.76 138.546 1125.33 151.987 1123.86 156.671 1120.09 168.896 1102.29 263.047 1102.29 263.047 1102.29 263.047 1096.2 140.614 1095.1 118.718 1094.01 127.111 1090.35 177.471 1075.91 177.471 1067.32 177.471 1064.88 157.096 1056.96 162.084 1050.62 166.037 1054.22 184.283 1041.73 178.627 1033.14 174.674 1038.13 163.726 1026.19 170.781 1021.99 173.214 1018.39 180.512 1012.91 180.026 1009.01 179.661 1006.51 174.43 1004.56 171.572L999.442 163.178C997.864 164.043 996.371 165.062 994.994 166.219 990.059 166.767 990.912 171.572 985.185 169.443 981.224 168.044 980.859 161.719 977.629 159.407 974.826 162.266 974.095 168.531 969.343 169.078 963.189 169.808 959.289 160.259 957.4 155.88 953.927 147.973 955.085 130.943 947.956 126.138 943.203 127.841 941.619 137.877 940.279 141.952 937.049 151.866 933.881 156.245 926.143 163.422 918.404 170.599 918.222 177.411 916.759 188.358 915.297 199.306 909.874 248.876 909.143 249.058 906.949 249.788 905.06 197.117 904.451 175.525 904.025 159.772 903.05 136.174 902.623 120.421 902.014 130.761 904.878 163.543 897.566 172.18 890.254 180.816 890.985 171.511 883.308 168.956 878.556 174.187 879.043 181.972 869.233 179.357 864.054 177.958 862.774 171.876 858.205 170.295 854.792 173.457 855.767 178.931 849.918 179.843 845.044 180.512 841.753 174.065 838.28 174.43 834.807 174.795 833.345 180.938 827.8 179.235 820.976 177.167 821.463 166.341 816.101 163.665 812.202 161.658 805.987 165.003 801.112 165.125 798.919 165.185 793.74 164.091 791.607 163.908 789.475 163.726 788.743 165.672 787.22 165.429 784.356 165.003 775.521 160.563 773.45 158.313 771.378 156.062 771.256 148.034 767.052 146.27 759.253 142.986 756.998 162.205 755.231 166.706 751.21 176.924 741.522 180.087 736.769 188.784 731.59 198.455 726.472 269.494 726.472 269.494 726.472 269.494 721.598 221.871 721.11 206.361 720.501 182.56 719.849 158.819 719.16 135.14 718.246 147.365 719.648 173.214 711.178 183.553 697.956 199.61 699.358 161.78 691.985 159.59 687.903 158.374 682.419 168.896 676.326 169.2 667.613 169.504 667.613 165.003 659.387 170.538 656.645 172.423 653.355 176.863 650.065 177.411 641.778 178.931 637.026 169.504 632.699 163.787 629.592 166.645 627.398 171.997 623.56 173.883 618.259 176.498 615.517 172.727 610.338 172.788 598.152 172.849 590.596 178.992 584.137 164.091 582.31 159.772 581.639 141.952 575.973 142.013 571.707 142.073 569.148 150.406 567.93 153.204 564.822 160.563 565.005 160.563 559.643 164.821 554.281 169.078 554.769 166.28 552.331 172.119 549.041 180.269 539.231 247.963 539.231 247.963 539.231 247.963 537.708 191.947 537.282 176.802 536.672 154.055 536.063 131.247 535.393 108.5 534.601 125.53 533.869 142.682 531.798 159.59 531.128 164.881 530.823 181.79 524.242 184.527 517.662 187.264 516.809 178.931 512.97 176.012 506.268 171.024 512.117 174.187 504.866 178.14 499.078 181.364 494.264 182.884 488.415 178.14 482.566 173.396 484.15 166.402 476.473 168.713 472.695 169.869 468.978 177.411 465.139 179.418 458.071 183.128 454.476 178.931 448.505 178.87 443.509 178.87 439.061 181.546 433.943 181.607 431.566 181.668 429.129 179.539 426.692 179.478 424.255 179.418 423.219 181.79 421.208 181.668 408.474 180.816 408.23 164.152 406.585 154.177 405.183 145.601 405.001 120.421 397.141 115.13 393.119 116.589 391.169 125.713 390.073 128.936 387.331 137.329 386.112 142.377 378.557 147.791 369.6 154.298 366.005 153.751 363.385 163.908 358.632 182.155 354.672 225.885 354.672 225.885 354.672 225.885 349.675 175.099 349.31 164.212L347.847 121.637C347.299 129.423 347.116 190.426 332.249 189.453 326.217 189.027 326.948 179.965 323.231 177.228 316.59 172.423 320.672 176.742 316.163 177.958 307.694 180.208 309.461 180.147 303.307 174.491 298.371 170.051 303.124 166.219 293.619 169.747 288.988 171.511 286.185 178.444 281.494 179.418 274.608 180.938 272.537 174.187 268.881 169.504 262.179 161.11 265.956 165.307 257.121 168.713 251.394 170.903 247.677 168.47 241.949 168.348 236.222 168.227 235.674 171.511 229.824 167.071 225.803 164.03 223.366 157.461 221.781 152.9 219.283 145.844 220.014 130.456 213.495 126.138 208.62 127.902 206.61 139.945 205.33 143.837 203.624 148.764 202.71 152.778 199.237 156.914 195.764 161.05 189.671 162.996 186.929 167.193 182.481 174.065 181.019 185.256 180.166 192.92 179.312 200.583 173.768 246.747 173.768 246.747 173.768 246.747 169.503 158.191 168.406 118.292 167.857 126.564 167.614 184.709 149.883 176.498 143.668 173.64 145.435 167.253 137.026 168.592 132.761 169.261 130.69 174.37 125.45 173.761 121.611 173.336 119.844 168.47 116.736 168.105 112.349 167.558 110.582 172.058 106.5 173.153L106.5 305.5 1203.5 305.5 1203.5 177.228C1202.59 178.131 1201.5 178.844 1200.31 179.324 1199.12 179.805 1197.84 180.043 1196.55 180.026Z" stroke="#F9AE6D" stroke-width="0.609554" stroke-miterlimit="8" fill="#F9AE6D" fill-rule="evenodd"/></g></svg>